<?xml version="1.0" encoding="UTF-8"?>
<svg width="115px" height="40px" viewBox="0 0 115 40" version="1.1" xmlns="http://www.w3.org/2000/svg" xmlns:xlink="http://www.w3.org/1999/xlink">
    <title>cat-wake</title>
    <g id="cat-wake" stroke="none" fill="none" fill-rule="evenodd" stroke-width="1">
        <g id="Group" transform="translate(1.9322, 2.9348)" fill="#1a1a1a">
            <path d="M3.48432455,27.9484948 L1.97972942,27.9484948 L1.97972942,26.7230904 C1.97972942,26.2032217 2.06023876,25.7615985 2.22125744,25.3982207 C2.38227513,25.034843 2.6845138,24.6356578 3.12797346,24.2006652 L3.84067564,23.492477 C4.1679912,23.1794943 4.39368066,22.9062978 4.51774404,22.6728874 C4.64180741,22.439477 4.7038391,22.1928049 4.7038391,21.9328711 C4.7038391,21.4607447 4.5309425,21.0788 4.18514929,20.787037 C3.83935609,20.4952741 3.37873882,20.3493926 2.8032975,20.3493926 C2.39151395,20.3493926 1.95069389,20.4409002 1.48083731,20.6239156 C1.01098171,20.8069299 0.517369274,21.0788 0,21.4395259 L0,19.9435763 C0.496252521,19.641204 0.996464188,19.4157506 1.500635,19.2672163 C2.00480679,19.118683 2.53141489,19.0444163 3.08045929,19.0444163 C4.06240596,19.0444163 4.84505959,19.2990454 5.42842019,19.8083037 C6.01178079,20.317564 6.30346109,20.9992291 6.30346109,21.8532993 C6.30346109,22.2564627 6.21503297,22.6317758 6.03817673,22.9792385 C5.86132049,23.3267022 5.52476611,23.7444543 5.02851359,24.2324948 L4.33164897,24.9168119 C3.9673791,25.2669274 3.7350909,25.5533857 3.63478436,25.7761867 C3.53447782,25.9989877 3.48432455,26.2721837 3.48432455,26.5957748 L3.48432455,26.969763 L3.48432455,27.9484948 Z M1.92429795,29.1182 L3.53183872,29.1182 L3.53183872,31.139323 L1.92429795,31.139323 L1.92429795,29.1182 Z" id="Shape" fill-rule="nonzero"></path>
            <path d="M12.7120263,19.2592593 L14.3195671,19.2592593 L14.3195671,24.4712089 L14.1532697,26.9140622 L12.8783237,26.9140622 L12.7120263,24.4712089 L12.7120263,19.2592593 Z M12.4744584,29.1182 L14.5571349,29.1182 L14.5571349,31.139323 L12.4744584,31.139323 L12.4744584,29.1182 Z" id="Shape" fill-rule="nonzero"></path>
            <polygon id="Path" points="21.7892682 27.9246237 24.5767281 27.9246237 24.5767281 31.139323 21.7892682 31.139323"></polygon>
            <path d="M35.7999983,17.9781541 C35.0978545,19.1876444 34.573886,20.3931565 34.2280928,21.5946904 C33.8822996,22.7962242 33.709403,24.007041 33.709403,25.2271407 C33.709403,26.4419368 33.8822996,27.6514277 34.2280928,28.8556133 C34.573886,30.059799 35.0978545,31.2719422 35.7999983,32.492043 L34.5329711,32.492043 C33.7357999,31.2295047 33.141881,30.000121 32.7512142,28.8038919 C32.3605474,27.6076627 32.165214,26.4154123 32.165214,25.2271407 C32.165214,24.0441738 32.3605474,22.8532499 32.7512142,21.6543689 C33.141881,20.4554879 33.7357999,19.230083 34.5329711,17.9781541 L35.7999983,17.9781541 Z" id="Path"></path>
            <path d="M46.5164576,25.2112267 C46.5164576,23.4659526 46.3382818,22.2193284 45.9819303,21.4713541 C45.6255787,20.7233798 45.0408985,20.3493926 44.2278898,20.3493926 C43.4201593,20.3493926 42.8381187,20.7233798 42.4817681,21.4713541 C42.1254166,22.2193284 41.9472408,23.4659526 41.9472408,25.2112267 C41.9472408,26.951196 42.1254166,28.1951679 42.4817681,28.9431422 C42.8381187,29.6911165 43.4201593,30.0651037 44.2278898,30.0651037 C45.0408985,30.0651037 45.6255787,29.692443 45.9819303,28.9471215 C46.3382818,28.201799 46.5164576,26.9565007 46.5164576,25.2112267 Z M48.1873501,25.2112267 C48.1873501,27.2800928 47.8613546,28.8237852 47.2093636,29.8423037 C46.5573716,30.8608222 45.563547,31.3700815 44.2278898,31.3700815 C42.8922316,31.3700815 41.8997266,30.8634746 41.2503747,29.8502607 C40.6010237,28.8370469 40.2763483,27.2907022 40.2763483,25.2112267 C40.2763483,23.1370568 40.6023438,21.5907126 41.2543348,20.5721941 C41.9063258,19.5536756 42.8975108,19.0444163 44.2278898,19.0444163 C45.563547,19.0444163 46.5573716,19.5536756 47.2093636,20.5721941 C47.8613546,21.5907126 48.1873501,23.1370568 48.1873501,25.2112267 Z" id="Shape" fill-rule="nonzero"></path>
            <polygon id="Path" points="52.7508067 27.9246237 55.5382666 27.9246237 55.5382666 31.139323 52.7508067 31.139323"></polygon>
            <path d="M67.1574833,25.2112267 C67.1574833,23.4659526 66.9793075,22.2193284 66.6229559,21.4713541 C66.2666043,20.7233798 65.6819242,20.3493926 64.8689154,20.3493926 C64.0611849,20.3493926 63.4791444,20.7233798 63.1227938,21.4713541 C62.7664422,22.2193284 62.5882664,23.4659526 62.5882664,25.2112267 C62.5882664,26.951196 62.7664422,28.1951679 63.1227938,28.9431422 C63.4791444,29.6911165 64.0611849,30.0651037 64.8689154,30.0651037 C65.6819242,30.0651037 66.2666043,29.692443 66.6229559,28.9471215 C66.9793075,28.201799 67.1574833,26.9565007 67.1574833,25.2112267 Z M68.8283758,25.2112267 C68.8283758,27.2800928 68.5023803,28.8237852 67.8503892,29.8423037 C67.1983972,30.8608222 66.2045726,31.3700815 64.8689154,31.3700815 C63.5332573,31.3700815 62.5407522,30.8634746 61.8914003,29.8502607 C61.2420494,28.8370469 60.9173739,27.2907022 60.9173739,25.2112267 C60.9173739,23.1370568 61.2433694,21.5907126 61.8953604,20.5721941 C62.5473515,19.5536756 63.5385365,19.0444163 64.8689154,19.0444163 C66.2045726,19.0444163 67.1983972,19.5536756 67.8503892,20.5721941 C68.5023803,21.5907126 68.8283758,23.1370568 68.8283758,25.2112267 Z" id="Shape" fill-rule="nonzero"></path>
            <path d="M73.0671578,17.9781541 L74.3341851,17.9781541 C75.1313562,19.230083 75.7252752,20.4554879 76.115942,21.6543689 C76.5066088,22.8532499 76.7019422,24.0441738 76.7019422,25.2271407 C76.7019422,26.420717 76.5066088,27.6169462 76.115942,28.8158281 C75.7252752,30.0147091 75.1313562,31.2401141 74.3341851,32.492043 L73.0671578,32.492043 C73.7693016,31.2613328 74.2932701,30.0438849 74.6390633,28.8396993 C74.9848556,27.6355136 75.1577517,26.4313274 75.1577517,25.2271407 C75.1577517,24.0176504 74.9848556,22.8108123 74.6390633,21.6066267 C74.2932701,20.40244 73.7693016,19.1929491 73.0671578,17.9781541 Z" id="Path"></path>
            <path d="M93.7081835,17.9781541 L94.9752107,17.9781541 C95.7723819,19.230083 96.3663008,20.4554879 96.7569676,21.6543689 C97.1476344,22.8532499 97.3429678,24.0441738 97.3429678,25.2271407 C97.3429678,26.420717 97.1476344,27.6169462 96.7569676,28.8158281 C96.3663008,30.0147091 95.7723819,31.2401141 94.9752107,32.492043 L93.7081835,32.492043 C94.4103273,31.2613328 94.9342958,30.0438849 95.280089,28.8396993 C95.6258812,27.6355136 95.7987773,26.4313274 95.7987773,25.2271407 C95.7987773,24.0176504 95.6258812,22.8108123 95.280089,21.6066267 C94.9342958,20.40244 94.4103273,19.1929491 93.7081835,17.9781541 Z" id="Path"></path>
            <polygon id="Path" points="108.312831 19.2592593 109.817426 19.2592593 103.593154 32.6511867 102.080642 32.6511867"></polygon>
            <polygon id="Path" points="46.3897542 0 47.8943493 0 41.6700775 13.3919274 40.1575651 13.3919274"></polygon>
            <polygon id="Path" points="54.5484026 10.5273437 57.3279438 0 58.9829972 0 55.522429 11.8800637 53.5822935 11.8800637 50.1217253 0 51.7767803 0"></polygon>
            <polygon id="Path" points="62.3111031 0 68.5353749 13.3919274 67.0307798 13.3919274 60.7985907 0"></polygon>
            <polygon id="Path" points="90.3246446 13.3919274 90.3246446 14.7446474 80.6318858 14.7446474 80.6318858 13.3919274"></polygon>
        </g>
    </g>
</svg>