<?xml version="1.0" encoding="UTF-8"?>
<svg width="132px" height="42px" viewBox="0 0 132 42" version="1.1" xmlns="http://www.w3.org/2000/svg" xmlns:xlink="http://www.w3.org/1999/xlink">
    <title>cat-sleeping</title>
    <g id="cat-sleeping" stroke="none" fill="none" fill-rule="evenodd" stroke-width="1">
        <g id="Group" transform="translate(1.3012, 3.0815)" fill="#1a1a1a">
            <polygon id="Path" points="0.183501741 20.2222222 8.26592386 20.2222222 8.26592386 21.5088969 1.75994824 31.2759331 8.4494256 31.2759331 8.4494256 32.6962891 0 32.6962891 0 31.4096144 6.33081318 21.6425782 0.183501741 21.6425782"></polygon>
            <polygon id="Path" points="11.4627977 23.3219404 18.2440259 23.3219404 18.2440259 24.7255867 12.8807665 31.443034 18.2440259 31.443034 18.2440259 32.6962891 11.2626143 32.6962891 11.2626143 31.2759331 16.6258721 24.5501309 11.4627977 24.5501309"></polygon>
            <polygon id="Path" points="22.3333859 23.3219404 29.1146142 23.3219404 29.1146142 24.7255867 23.7513548 31.443034 29.1146142 31.443034 29.1146142 32.6962891 22.1332025 32.6962891 22.1332025 31.2759331 27.4964603 24.5501309 22.3333859 24.5501309"></polygon>
            <polygon id="Path" points="34.5552147 29.3208549 37.4912441 29.3208549 37.4912441 32.6962891 34.5552147 32.6962891"></polygon>
            <path d="M49.312706,18.8770618 C48.5731384,20.1470267 48.0212428,21.4128144 47.6570191,22.6744249 C47.2927954,23.9360354 47.1106835,25.207393 47.1106835,26.4884978 C47.1106835,27.7640336 47.2927954,29.033999 47.6570191,30.298394 C48.0212428,31.562789 48.5731384,32.8355393 49.312706,34.1166451 L47.9781472,34.1166451 C47.1384874,32.7909799 46.512913,31.500127 46.101424,30.2440864 C45.6899349,28.9880459 45.4841904,27.736183 45.4841904,26.4884978 C45.4841904,25.2463825 45.6899349,23.9959124 46.101424,22.7370873 C46.512913,21.4782623 47.1384874,20.1915871 47.9781472,18.8770618 L49.312706,18.8770618 Z" id="Path"></path>
            <polygon id="Path" points="53.9025277 26.6472438 62.7439793 26.6472438 62.7439793 28.0592449 53.9025277 28.0592449"></polygon>
            <polygon id="Path" points="67.1669794 29.3208549 70.1030088 29.3208549 70.1030088 32.6962891 67.1669794 32.6962891"></polygon>
            <polygon id="Path" points="75.6437041 26.6472438 84.4851558 26.6472438 84.4851558 28.0592449 75.6437041 28.0592449"></polygon>
            <path d="M88.5661765,18.8770618 L89.9007353,18.8770618 C90.7403951,20.1915871 91.3659695,21.4782623 91.7774585,22.7370873 C92.1889475,23.9959124 92.394692,25.2463825 92.394692,26.4884978 C92.394692,27.7417529 92.1889475,28.9977935 91.7774585,30.2566196 C91.3659695,31.5154446 90.7403951,32.8021198 89.9007353,34.1166451 L88.5661765,34.1166451 C89.305744,32.8243995 89.8576396,31.5460792 90.2218633,30.2816842 C90.586086,29.0172893 90.7681974,27.7528938 90.7681974,26.4884978 C90.7681974,25.2185329 90.586086,23.951353 90.2218633,22.686958 C89.8576396,21.422562 89.305744,20.1525966 88.5661765,18.8770618 Z" id="Path"></path>
            <path d="M110.307353,18.8770618 L111.641912,18.8770618 C112.481572,20.1915871 113.107146,21.4782623 113.518635,22.7370873 C113.930124,23.9959124 114.135869,25.2463825 114.135869,26.4884978 C114.135869,27.7417529 113.930124,28.9977935 113.518635,30.2566196 C113.107146,31.5154446 112.481572,32.8021198 111.641912,34.1166451 L110.307353,34.1166451 C111.04692,32.8243995 111.598816,31.5460792 111.96304,30.2816842 C112.327262,29.0172893 112.509374,27.7528938 112.509374,26.4884978 C112.509374,25.2185329 112.327262,23.951353 111.96304,22.686958 C111.598816,21.422562 111.04692,20.1525966 110.307353,18.8770618 Z" id="Path"></path>
            <path d="M127.341934,26.1459411 L128.426263,26.8811853 C127.948046,27.9729095 127.47817,28.7178998 127.016635,29.1161562 C126.5551,29.5144137 126.079663,29.7135424 125.590325,29.7135424 C124.811833,29.668982 124.109799,29.2637624 123.484225,28.4978836 C122.858651,27.7320058 122.417968,27.1889287 122.162178,26.8686522 C121.906387,26.5483758 121.575528,26.3910225 121.1696,26.3965924 C120.741429,26.3965924 120.41613,26.5985061 120.193704,27.0023336 C119.971277,27.4061599 119.73773,27.9199941 119.493061,28.5438362 L118.383708,27.9088538 C118.706227,26.8783999 119.123276,26.118092 119.634857,25.6279302 C120.146438,25.1377674 120.660799,24.892686 121.177941,24.892686 C122.117692,24.8815461 122.958742,25.4385486 123.70109,26.5636933 C124.443439,27.6888381 125.073185,28.2514104 125.590325,28.2514104 C126.029618,28.2514104 126.388281,28.0105073 126.666313,27.5287009 C126.944347,27.0468935 127.169554,26.5859736 127.341934,26.1459411 Z" id="Path"></path>
            <polygon id="Path" points="60.4668877 0 62.0516766 0 55.4956559 14.0615238 53.9025277 14.0615238"></polygon>
            <polygon id="Path" points="69.0603858 11.0537109 71.9880744 0 73.7313409 0 70.0863271 12.4740669 68.0427839 12.4740669 64.39777 0 66.1410381 0"></polygon>
            <polygon id="Path" points="77.2368323 0 83.792853 14.0615238 82.2080641 14.0615238 75.6437041 0"></polygon>
            <polygon id="Path" points="106.743474 14.0615238 106.743474 15.4818798 96.5340987 15.4818798 96.5340987 14.0615238"></polygon>
        </g>
    </g>
</svg>