<svg xmlns="http://www.w3.org/2000/svg" version="1.1" width="85" height="27">
<path d="M 0.956055 14.980957 L 6.160645 14.980957 L 6.160645 15.808105 L 1.971191 22.086914 L 6.278809 22.086914 L 6.278809 23.000000 L 0.837891 23.000000 L 0.837891 22.172852 L 4.914551 15.894043 L 0.956055 15.894043 Z " fill="rgb(255, 255, 255)" fill-opacity="1.000000" />
<path d="M 8.219238 16.973633 L 12.585938 16.973633 L 12.585938 17.875977 L 9.132324 22.194336 L 12.585938 22.194336 L 12.585938 23.000000 L 8.090332 23.000000 L 8.090332 22.086914 L 11.543945 17.763184 L 8.219238 17.763184 Z " fill="rgb(255, 255, 255)" fill-opacity="1.000000" />
<path d="M 15.219238 16.973633 L 19.585938 16.973633 L 19.585938 17.875977 L 16.132324 22.194336 L 19.585938 22.194336 L 19.585938 23.000000 L 15.090332 23.000000 L 15.090332 22.086914 L 18.543945 17.763184 L 15.219238 17.763184 Z " fill="rgb(255, 255, 255)" fill-opacity="1.000000" />
<path d="M 23.089355 20.830078 L 24.979980 20.830078 L 24.979980 23.000000 L 23.089355 23.000000 Z " fill="rgb(255, 255, 255)" fill-opacity="1.000000" />
<path d="M 32.592285 14.116211 Q 31.877930 15.340820 31.526123 16.557373 Q 31.174316 17.773926 31.174316 19.009277 Q 31.174316 20.239258 31.526123 21.458496 Q 31.877930 22.677734 32.592285 23.913086 L 31.732910 23.913086 Q 30.921875 22.634766 30.524414 21.423584 Q 30.126953 20.212402 30.126953 19.009277 Q 30.126953 17.811523 30.524414 16.597656 Q 30.921875 15.383789 31.732910 14.116211 Z " fill="rgb(255, 255, 255)" fill-opacity="1.000000" />
<path d="M 35.547852 19.111328 L 41.241211 19.111328 L 41.241211 20.019043 L 35.547852 20.019043 Z " fill="rgb(255, 255, 255)" fill-opacity="1.000000" />
<path d="M 44.089355 20.830078 L 45.979980 20.830078 L 45.979980 23.000000 L 44.089355 23.000000 Z " fill="rgb(255, 255, 255)" fill-opacity="1.000000" />
<path d="M 49.547852 19.111328 L 55.241211 19.111328 L 55.241211 20.019043 L 49.547852 20.019043 Z " fill="rgb(255, 255, 255)" fill-opacity="1.000000" />
<path d="M 57.869141 14.116211 L 58.728516 14.116211 Q 59.539551 15.383789 59.937012 16.597656 Q 60.334473 17.811523 60.334473 19.009277 Q 60.334473 20.217773 59.937012 21.431641 Q 59.539551 22.645508 58.728516 23.913086 L 57.869141 23.913086 Q 58.583496 22.666992 58.935303 21.447754 Q 59.287109 20.228516 59.287109 19.009277 Q 59.287109 17.784668 58.935303 16.565430 Q 58.583496 15.346191 57.869141 14.116211 Z " fill="rgb(255, 255, 255)" fill-opacity="1.000000" />
<path d="M 71.869141 14.116211 L 72.728516 14.116211 Q 73.539551 15.383789 73.937012 16.597656 Q 74.334473 17.811523 74.334473 19.009277 Q 74.334473 20.217773 73.937012 21.431641 Q 73.539551 22.645508 72.728516 23.913086 L 71.869141 23.913086 Q 72.583496 22.666992 72.935303 21.447754 Q 73.287109 20.228516 73.287109 19.009277 Q 73.287109 17.784668 72.935303 16.565430 Q 72.583496 15.346191 71.869141 14.116211 Z " fill="rgb(255, 255, 255)" fill-opacity="1.000000" />
<path d="M 82.838379 18.789062 L 83.536621 19.261719 Q 83.074707 20.314453 82.628906 20.698486 Q 82.183105 21.082520 81.710449 21.082520 Q 80.958496 21.039551 80.354248 20.301025 Q 79.750000 19.562500 79.502930 19.253662 Q 79.255859 18.944824 78.863770 18.950195 Q 78.450195 18.950195 78.235352 19.339600 Q 78.020508 19.729004 77.784180 20.330566 L 77.069824 19.922363 Q 77.381348 18.928711 77.875488 18.456055 Q 78.369629 17.983398 78.869141 17.983398 Q 79.776855 17.972656 80.493896 19.057617 Q 81.210938 20.142578 81.710449 20.142578 Q 82.134766 20.142578 82.403320 19.677979 Q 82.671875 19.213379 82.838379 18.789062 Z " fill="rgb(255, 255, 255)" fill-opacity="1.000000" />
<path d="M 39.774902 1.980957 L 40.795410 1.980957 L 36.573730 11.020508 L 35.547852 11.020508 Z " fill="rgb(255, 255, 255)" fill-opacity="1.000000" />
<path d="M 45.308594 9.086914 L 47.193848 1.980957 L 48.316406 1.980957 L 45.969238 10.000000 L 44.653320 10.000000 L 42.306152 1.980957 L 43.428711 1.980957 Z " fill="rgb(255, 255, 255)" fill-opacity="1.000000" />
<path d="M 50.573730 1.980957 L 54.795410 11.020508 L 53.774902 11.020508 L 49.547852 1.980957 Z " fill="rgb(255, 255, 255)" fill-opacity="1.000000" />
<path d="M 69.574219 11.020508 L 69.574219 11.933594 L 63.000000 11.933594 L 63.000000 11.020508 Z " fill="rgb(255, 255, 255)" fill-opacity="1.000000" />
</svg>