<svg xmlns="http://www.w3.org/2000/svg" version="1.1" width="78" height="27">
<path d="M 3.673828 20.846191 L 2.653320 20.846191 L 2.653320 20.019043 Q 2.653320 19.492676 2.817139 19.124756 Q 2.980957 18.756836 3.432129 18.316406 L 3.915527 17.838379 Q 4.248535 17.521484 4.374756 17.285156 Q 4.500977 17.048828 4.500977 16.785645 Q 4.500977 16.307617 4.149170 16.012207 Q 3.797363 15.716797 3.211914 15.716797 Q 2.792969 15.716797 2.314941 15.902100 Q 1.836914 16.087402 1.310547 16.452637 L 1.310547 15.442871 Q 1.815430 15.136719 2.328369 14.986328 Q 2.841309 14.835938 3.399902 14.835938 Q 4.398926 14.835938 4.992432 15.351562 Q 5.585938 15.867188 5.585938 16.731934 Q 5.585938 17.140137 5.406006 17.491943 Q 5.226074 17.843750 4.721191 18.337891 L 4.248535 18.799805 Q 3.877930 19.154297 3.775879 19.379883 Q 3.673828 19.605469 3.673828 19.933105 L 3.673828 20.185547 Z M 2.615723 21.635742 L 3.706055 21.635742 L 3.706055 23.000000 L 2.615723 23.000000 Z " fill="rgb(255, 255, 255)" fill-opacity="1.000000" />
<path d="M 9.932617 14.980957 L 11.022949 14.980957 L 11.022949 18.499023 L 10.910156 20.147949 L 10.045410 20.147949 L 9.932617 18.499023 Z M 9.771484 21.635742 L 11.184082 21.635742 L 11.184082 23.000000 L 9.771484 23.000000 Z " fill="rgb(255, 255, 255)" fill-opacity="1.000000" />
<path d="M 16.089355 20.830078 L 17.979980 20.830078 L 17.979980 23.000000 L 16.089355 23.000000 Z " fill="rgb(255, 255, 255)" fill-opacity="1.000000" />
<path d="M 25.592285 14.116211 Q 24.877930 15.340820 24.526123 16.557373 Q 24.174316 17.773926 24.174316 19.009277 Q 24.174316 20.239258 24.526123 21.458496 Q 24.877930 22.677734 25.592285 23.913086 L 24.732910 23.913086 Q 23.921875 22.634766 23.524414 21.423584 Q 23.126953 20.212402 23.126953 19.009277 Q 23.126953 17.811523 23.524414 16.597656 Q 23.921875 15.383789 24.732910 14.116211 Z " fill="rgb(255, 255, 255)" fill-opacity="1.000000" />
<path d="M 32.860840 18.998535 Q 32.860840 17.231445 32.498291 16.474121 Q 32.135742 15.716797 31.308594 15.716797 Q 30.486816 15.716797 30.124268 16.474121 Q 29.761719 17.231445 29.761719 18.998535 Q 29.761719 20.760254 30.124268 21.517578 Q 30.486816 22.274902 31.308594 22.274902 Q 32.135742 22.274902 32.498291 21.520264 Q 32.860840 20.765625 32.860840 18.998535 Z M 33.994141 18.998535 Q 33.994141 21.093262 33.330811 22.124512 Q 32.667480 23.155762 31.308594 23.155762 Q 29.949707 23.155762 29.289062 22.129883 Q 28.628418 21.104004 28.628418 18.998535 Q 28.628418 16.898438 29.291748 15.867188 Q 29.955078 14.835938 31.308594 14.835938 Q 32.667480 14.835938 33.330811 15.867188 Q 33.994141 16.898438 33.994141 18.998535 Z " fill="rgb(255, 255, 255)" fill-opacity="1.000000" />
<path d="M 37.089355 20.830078 L 38.979980 20.830078 L 38.979980 23.000000 L 37.089355 23.000000 Z " fill="rgb(255, 255, 255)" fill-opacity="1.000000" />
<path d="M 46.860840 18.998535 Q 46.860840 17.231445 46.498291 16.474121 Q 46.135742 15.716797 45.308594 15.716797 Q 44.486816 15.716797 44.124268 16.474121 Q 43.761719 17.231445 43.761719 18.998535 Q 43.761719 20.760254 44.124268 21.517578 Q 44.486816 22.274902 45.308594 22.274902 Q 46.135742 22.274902 46.498291 21.520264 Q 46.860840 20.765625 46.860840 18.998535 Z M 47.994141 18.998535 Q 47.994141 21.093262 47.330811 22.124512 Q 46.667480 23.155762 45.308594 23.155762 Q 43.949707 23.155762 43.289062 22.129883 Q 42.628418 21.104004 42.628418 18.998535 Q 42.628418 16.898438 43.291748 15.867188 Q 43.955078 14.835938 45.308594 14.835938 Q 46.667480 14.835938 47.330811 15.867188 Q 47.994141 16.898438 47.994141 18.998535 Z " fill="rgb(255, 255, 255)" fill-opacity="1.000000" />
<path d="M 50.869141 14.116211 L 51.728516 14.116211 Q 52.539551 15.383789 52.937012 16.597656 Q 53.334473 17.811523 53.334473 19.009277 Q 53.334473 20.217773 52.937012 21.431641 Q 52.539551 22.645508 51.728516 23.913086 L 50.869141 23.913086 Q 51.583496 22.666992 51.935303 21.447754 Q 52.287109 20.228516 52.287109 19.009277 Q 52.287109 17.784668 51.935303 16.565430 Q 51.583496 15.346191 50.869141 14.116211 Z " fill="rgb(255, 255, 255)" fill-opacity="1.000000" />
<path d="M 64.869141 14.116211 L 65.728516 14.116211 Q 66.539551 15.383789 66.937012 16.597656 Q 67.334473 17.811523 67.334473 19.009277 Q 67.334473 20.217773 66.937012 21.431641 Q 66.539551 22.645508 65.728516 23.913086 L 64.869141 23.913086 Q 65.583496 22.666992 65.935303 21.447754 Q 66.287109 20.228516 66.287109 19.009277 Q 66.287109 17.784668 65.935303 16.565430 Q 65.583496 15.346191 64.869141 14.116211 Z " fill="rgb(255, 255, 255)" fill-opacity="1.000000" />
<path d="M 74.774902 14.980957 L 75.795410 14.980957 L 71.573730 24.020508 L 70.547852 24.020508 Z " fill="rgb(255, 255, 255)" fill-opacity="1.000000" />
<path d="M 32.774902 1.980957 L 33.795410 1.980957 L 29.573730 11.020508 L 28.547852 11.020508 Z " fill="rgb(255, 255, 255)" fill-opacity="1.000000" />
<path d="M 38.308594 9.086914 L 40.193848 1.980957 L 41.316406 1.980957 L 38.969238 10.000000 L 37.653320 10.000000 L 35.306152 1.980957 L 36.428711 1.980957 Z " fill="rgb(255, 255, 255)" fill-opacity="1.000000" />
<path d="M 43.573730 1.980957 L 47.795410 11.020508 L 46.774902 11.020508 L 42.547852 1.980957 Z " fill="rgb(255, 255, 255)" fill-opacity="1.000000" />
<path d="M 62.574219 11.020508 L 62.574219 11.933594 L 56.000000 11.933594 L 56.000000 11.020508 Z " fill="rgb(255, 255, 255)" fill-opacity="1.000000" />
</svg>