<svg xmlns="http://www.w3.org/2000/svg" version="1.1" width="22" height="53">
<path d="M 0.537109 3.984375 L 1.562988 3.984375 L 3.308594 9.033203 L 5.059570 3.984375 L 6.085449 3.984375 L 3.947754 10.000000 L 2.674805 10.000000 Z " fill="rgb(0, 0, 0)" fill-opacity="1.000000" />
<path d="M 7.537109 3.984375 L 8.562988 3.984375 L 10.308594 9.033203 L 12.059570 3.984375 L 13.085449 3.984375 L 10.947754 10.000000 L 9.674805 10.000000 Z " fill="rgb(0, 0, 0)" fill-opacity="1.000000" />
<path d="M 14.537109 3.984375 L 15.562988 3.984375 L 17.308594 9.033203 L 19.059570 3.984375 L 20.085449 3.984375 L 17.947754 10.000000 L 16.674805 10.000000 Z " fill="rgb(0, 0, 0)" fill-opacity="1.000000" />
<path d="M 4.592285 14.116211 Q 3.877930 15.340820 3.526123 16.557373 Q 3.174316 17.773926 3.174316 19.009277 Q 3.174316 20.239258 3.526123 21.458496 Q 3.877930 22.677734 4.592285 23.913086 L 3.732910 23.913086 Q 2.921875 22.634766 2.524414 21.423584 Q 2.126953 20.212402 2.126953 19.009277 Q 2.126953 17.811523 2.524414 16.597656 Q 2.921875 15.383789 3.732910 14.116211 Z " fill="rgb(0, 0, 0)" fill-opacity="1.000000" />
<path d="M 1.573730 40.980957 L 5.795410 50.020508 L 4.774902 50.020508 L 0.547852 40.980957 Z " fill="rgb(0, 0, 0)" fill-opacity="1.000000" />
<path d="M 10.985352 40.594238 L 10.985352 51.594238 L 10.061523 51.594238 L 10.061523 40.594238 Z " fill="rgb(0, 0, 0)" fill-opacity="1.000000" />
<path d="M 18.774902 40.980957 L 19.795410 40.980957 L 15.573730 50.020508 L 14.547852 50.020508 Z " fill="rgb(0, 0, 0)" fill-opacity="1.000000" />
<path d="M 10.985352 27.594238 L 10.985352 38.594238 L 10.061523 38.594238 L 10.061523 27.594238 Z " fill="rgb(0, 0, 0)" fill-opacity="1.000000" />
<path d="M 13.574219 24.020508 L 13.574219 24.933594 L 7.000000 24.933594 L 7.000000 24.020508 Z " fill="rgb(0, 0, 0)" fill-opacity="1.000000" />
<path d="M 15.869141 14.116211 L 16.728516 14.116211 Q 17.539551 15.383789 17.937012 16.597656 Q 18.334473 17.811523 18.334473 19.009277 Q 18.334473 20.217773 17.937012 21.431641 Q 17.539551 22.645508 16.728516 23.913086 L 15.869141 23.913086 Q 16.583496 22.666992 16.935303 21.447754 Q 17.287109 20.228516 17.287109 19.009277 Q 17.287109 17.784668 16.935303 16.565430 Q 16.583496 15.346191 15.869141 14.116211 Z " fill="rgb(0, 0, 0)" fill-opacity="1.000000" />
</svg>