<svg xmlns="http://www.w3.org/2000/svg" version="1.1" width="50" height="144">
<path d="M 6.574219 11.020508 L 6.574219 11.933594 L 0.000000 11.933594 L 0.000000 11.020508 Z " fill="rgb(255, 255, 255)" fill-opacity="1.000000" />
<path d="M 13.574219 11.020508 L 13.574219 11.933594 L 7.000000 11.933594 L 7.000000 11.020508 Z " fill="rgb(255, 255, 255)" fill-opacity="1.000000" />
<path d="M 20.574219 11.020508 L 20.574219 11.933594 L 14.000000 11.933594 L 14.000000 11.020508 Z " fill="rgb(255, 255, 255)" fill-opacity="1.000000" />
<path d="M 3.985352 14.594238 L 3.985352 25.594238 L 3.061523 25.594238 L 3.061523 14.594238 Z " fill="rgb(255, 255, 255)" fill-opacity="1.000000" />
<path d="M 3.985352 27.594238 L 3.985352 38.594238 L 3.061523 38.594238 L 3.061523 27.594238 Z " fill="rgb(255, 255, 255)" fill-opacity="1.000000" />
<path d="M 3.985352 40.594238 L 3.985352 51.594238 L 3.061523 51.594238 L 3.061523 40.594238 Z " fill="rgb(255, 255, 255)" fill-opacity="1.000000" />
<path d="M 3.985352 53.594238 L 3.985352 64.594238 L 3.061523 64.594238 L 3.061523 53.594238 Z " fill="rgb(255, 255, 255)" fill-opacity="1.000000" />
<path d="M 3.985352 66.594238 L 3.985352 77.594238 L 3.061523 77.594238 L 3.061523 66.594238 Z " fill="rgb(255, 255, 255)" fill-opacity="1.000000" />
<path d="M 3.985352 79.594238 L 3.985352 90.594238 L 3.061523 90.594238 L 3.061523 79.594238 Z " fill="rgb(255, 255, 255)" fill-opacity="1.000000" />
<path d="M 3.985352 92.594238 L 3.985352 103.594238 L 3.061523 103.594238 L 3.061523 92.594238 Z " fill="rgb(255, 255, 255)" fill-opacity="1.000000" />
<path d="M 3.985352 105.594238 L 3.985352 116.594238 L 3.061523 116.594238 L 3.061523 105.594238 Z " fill="rgb(255, 255, 255)" fill-opacity="1.000000" />
<path d="M 3.985352 118.594238 L 3.985352 129.594238 L 3.061523 129.594238 L 3.061523 118.594238 Z " fill="rgb(255, 255, 255)" fill-opacity="1.000000" />
<path d="M 3.985352 131.594238 L 3.985352 142.594238 L 3.061523 142.594238 L 3.061523 131.594238 Z " fill="rgb(255, 255, 255)" fill-opacity="1.000000" />
<path d="M 7.102051 15.007812 L 8.584473 15.007812 L 11.721191 21.587402 L 11.721191 15.007812 L 12.875977 15.007812 L 12.875977 23.000000 L 11.393555 23.000000 L 8.256836 16.420410 L 8.256836 23.000000 L 7.102051 23.000000 Z " fill="rgb(255, 255, 255)" fill-opacity="1.000000" />
<path d="M 8.058105 27.980957 L 12.816895 27.980957 L 12.816895 28.894043 L 9.143066 28.894043 L 9.143066 31.053223 L 12.655762 31.053223 L 12.655762 31.966309 L 9.143066 31.966309 L 9.143066 35.086914 L 12.918945 35.086914 L 12.918945 36.000000 L 8.058105 36.000000 Z " fill="rgb(255, 255, 255)" fill-opacity="1.000000" />
<path d="M 7.000000 40.980957 L 8.058105 40.980957 L 8.826172 47.490723 L 9.739258 43.183105 L 10.872559 43.183105 L 11.796387 47.501465 L 12.564453 40.980957 L 13.622559 40.980957 L 12.424805 49.000000 L 11.398926 49.000000 L 10.308594 44.235840 L 9.223633 49.000000 L 8.197754 49.000000 Z " fill="rgb(255, 255, 255)" fill-opacity="1.000000" />
<path d="M 12.435547 54.254883 L 12.435547 55.355957 Q 11.941406 55.039062 11.444580 54.877930 Q 10.947754 54.716797 10.442871 54.716797 Q 9.674805 54.716797 9.229004 55.073975 Q 8.783203 55.431152 8.783203 56.038086 Q 8.783203 56.569824 9.075928 56.849121 Q 9.368652 57.128418 10.168945 57.316406 L 10.738281 57.445312 Q 11.866211 57.708496 12.381836 58.272461 Q 12.897461 58.836426 12.897461 59.808594 Q 12.897461 60.952637 12.188477 61.554199 Q 11.479492 62.155762 10.125977 62.155762 Q 9.562012 62.155762 8.992676 62.034912 Q 8.423340 61.914062 7.848633 61.672363 L 7.848633 60.517578 Q 8.466309 60.909668 9.016846 61.092285 Q 9.567383 61.274902 10.125977 61.274902 Q 10.947754 61.274902 11.404297 60.906982 Q 11.860840 60.539062 11.860840 59.878418 Q 11.860840 59.276855 11.546631 58.959961 Q 11.232422 58.643066 10.453613 58.471191 L 9.873535 58.336914 Q 8.756348 58.084473 8.251465 57.574219 Q 7.746582 57.063965 7.746582 56.204590 Q 7.746582 55.130371 8.468994 54.483154 Q 9.191406 53.835938 10.389160 53.835938 Q 10.851074 53.835938 11.361328 53.940674 Q 11.871582 54.045410 12.435547 54.254883 Z " fill="rgb(255, 255, 255)" fill-opacity="1.000000" />
<path d="M 8.154785 66.980957 L 9.245117 66.980957 L 9.245117 74.086914 L 13.117676 74.086914 L 13.117676 75.000000 L 8.154785 75.000000 Z " fill="rgb(255, 255, 255)" fill-opacity="1.000000" />
<path d="M 8.058105 79.980957 L 12.816895 79.980957 L 12.816895 80.894043 L 9.143066 80.894043 L 9.143066 83.053223 L 12.655762 83.053223 L 12.655762 83.966309 L 9.143066 83.966309 L 9.143066 87.086914 L 12.918945 87.086914 L 12.918945 88.000000 L 8.058105 88.000000 Z " fill="rgb(255, 255, 255)" fill-opacity="1.000000" />
<path d="M 7.252441 92.980957 L 13.370117 92.980957 L 13.370117 93.894043 L 10.861816 93.894043 L 10.861816 101.000000 L 9.771484 101.000000 L 9.771484 93.894043 L 7.252441 93.894043 Z " fill="rgb(255, 255, 255)" fill-opacity="1.000000" />
<path d="M 7.252441 105.980957 L 13.370117 105.980957 L 13.370117 106.894043 L 10.861816 106.894043 L 10.861816 114.000000 L 9.771484 114.000000 L 9.771484 106.894043 L 7.252441 106.894043 Z " fill="rgb(255, 255, 255)" fill-opacity="1.000000" />
<path d="M 8.058105 118.980957 L 12.816895 118.980957 L 12.816895 119.894043 L 9.143066 119.894043 L 9.143066 122.053223 L 12.655762 122.053223 L 12.655762 122.966309 L 9.143066 122.966309 L 9.143066 126.086914 L 12.918945 126.086914 L 12.918945 127.000000 L 8.058105 127.000000 Z " fill="rgb(255, 255, 255)" fill-opacity="1.000000" />
<path d="M 11.082031 136.213379 Q 11.500977 136.320801 11.796387 136.618896 Q 12.091797 136.916992 12.532227 137.808594 L 13.622559 140.000000 L 12.457031 140.000000 L 11.500977 137.975098 Q 11.087402 137.110352 10.757080 136.860596 Q 10.426758 136.610840 9.895020 136.610840 L 8.858398 136.610840 L 8.858398 140.000000 L 7.768066 140.000000 L 7.768066 131.980957 L 10.002441 131.980957 Q 11.323730 131.980957 12.027344 132.577148 Q 12.730957 133.173340 12.730957 134.301270 Q 12.730957 135.096191 12.298584 135.598389 Q 11.866211 136.100586 11.082031 136.213379 Z M 8.858398 132.872559 L 8.858398 135.719238 L 10.045410 135.719238 Q 10.824219 135.719238 11.205566 135.370117 Q 11.586914 135.020996 11.586914 134.301270 Q 11.586914 133.608398 11.181396 133.240479 Q 10.775879 132.872559 10.002441 132.872559 Z " fill="rgb(255, 255, 255)" fill-opacity="1.000000" />
<path d="M 17.985352 131.594238 L 17.985352 142.594238 L 17.061523 142.594238 L 17.061523 131.594238 Z " fill="rgb(255, 255, 255)" fill-opacity="1.000000" />
<path d="M 17.985352 118.594238 L 17.985352 129.594238 L 17.061523 129.594238 L 17.061523 118.594238 Z " fill="rgb(255, 255, 255)" fill-opacity="1.000000" />
<path d="M 17.985352 92.594238 L 17.985352 103.594238 L 17.061523 103.594238 L 17.061523 92.594238 Z " fill="rgb(255, 255, 255)" fill-opacity="1.000000" />
<path d="M 17.985352 105.594238 L 17.985352 116.594238 L 17.061523 116.594238 L 17.061523 105.594238 Z " fill="rgb(255, 255, 255)" fill-opacity="1.000000" />
<path d="M 21.472656 98.314453 L 27.149902 98.314453 L 27.149902 99.222168 L 21.472656 99.222168 Z M 21.472656 95.784668 L 27.149902 95.784668 L 27.149902 96.692383 L 21.472656 96.692383 Z " fill="rgb(255, 255, 255)" fill-opacity="1.000000" />
<path d="M 28.472656 98.314453 L 34.149902 98.314453 L 34.149902 99.222168 L 28.472656 99.222168 Z M 28.472656 95.784668 L 34.149902 95.784668 L 34.149902 96.692383 L 28.472656 96.692383 Z " fill="rgb(255, 255, 255)" fill-opacity="1.000000" />
<path d="M 17.985352 79.594238 L 17.985352 90.594238 L 17.061523 90.594238 L 17.061523 79.594238 Z " fill="rgb(255, 255, 255)" fill-opacity="1.000000" />
<path d="M 17.985352 66.594238 L 17.985352 77.594238 L 17.061523 77.594238 L 17.061523 66.594238 Z " fill="rgb(255, 255, 255)" fill-opacity="1.000000" />
<path d="M 17.985352 53.594238 L 17.985352 64.594238 L 17.061523 64.594238 L 17.061523 53.594238 Z " fill="rgb(255, 255, 255)" fill-opacity="1.000000" />
<path d="M 17.985352 40.594238 L 17.985352 51.594238 L 17.061523 51.594238 L 17.061523 40.594238 Z " fill="rgb(255, 255, 255)" fill-opacity="1.000000" />
<path d="M 17.985352 27.594238 L 17.985352 38.594238 L 17.061523 38.594238 L 17.061523 27.594238 Z " fill="rgb(255, 255, 255)" fill-opacity="1.000000" />
<path d="M 17.985352 14.594238 L 17.985352 25.594238 L 17.061523 25.594238 L 17.061523 14.594238 Z " fill="rgb(255, 255, 255)" fill-opacity="1.000000" />
<path d="M 21.472656 20.314453 L 27.149902 20.314453 L 27.149902 21.222168 L 21.472656 21.222168 Z M 21.472656 17.784668 L 27.149902 17.784668 L 27.149902 18.692383 L 21.472656 18.692383 Z " fill="rgb(255, 255, 255)" fill-opacity="1.000000" />
<path d="M 28.472656 20.314453 L 34.149902 20.314453 L 34.149902 21.222168 L 28.472656 21.222168 Z M 28.472656 17.784668 L 34.149902 17.784668 L 34.149902 18.692383 L 28.472656 18.692383 Z " fill="rgb(255, 255, 255)" fill-opacity="1.000000" />
<path d="M 35.472656 20.314453 L 41.149902 20.314453 L 41.149902 21.222168 L 35.472656 21.222168 Z M 35.472656 17.784668 L 41.149902 17.784668 L 41.149902 18.692383 L 35.472656 18.692383 Z " fill="rgb(255, 255, 255)" fill-opacity="1.000000" />
<path d="M 42.472656 20.314453 L 48.149902 20.314453 L 48.149902 21.222168 L 42.472656 21.222168 Z M 42.472656 17.784668 L 48.149902 17.784668 L 48.149902 18.692383 L 42.472656 18.692383 Z " fill="rgb(255, 255, 255)" fill-opacity="1.000000" />
</svg>