<svg xmlns="http://www.w3.org/2000/svg" version="1.1" width="484" height="196">
<path d="M 2.374023 86.061035 L 4.049805 86.061035 L 4.049805 87.484375 L 2.991699 89.536133 L 1.842285 89.536133 L 2.374023 87.484375 Z M 2.304199 81.989746 L 3.979980 81.989746 L 3.979980 83.928711 L 2.304199 83.928711 Z " fill="rgb(255, 255, 255)" fill-opacity="1.000000" />
<path d="M 2.304199 94.989746 L 3.979980 94.989746 L 3.979980 96.928711 L 2.304199 96.928711 Z M 2.304199 99.044922 L 3.979980 99.044922 L 3.979980 101.000000 L 2.304199 101.000000 Z " fill="rgb(255, 255, 255)" fill-opacity="1.000000" />
<path d="M 14.208008 117.319336 L 13.251953 117.319336 L 6.414551 103.300781 L 7.370605 103.300781 Z " fill="rgb(255, 255, 255)" fill-opacity="1.000000" />
<path d="M 21.208008 130.319336 L 20.251953 130.319336 L 13.414551 116.300781 L 14.370605 116.300781 Z " fill="rgb(255, 255, 255)" fill-opacity="1.000000" />
<path d="M 24.985352 131.631836 L 24.985352 134.978027 L 23.782227 134.978027 L 23.782227 131.631836 Z " fill="rgb(255, 255, 255)" fill-opacity="1.000000" />
<path d="M 45.985352 144.631836 L 45.985352 147.978027 L 44.782227 147.978027 L 44.782227 144.631836 Z " fill="rgb(255, 255, 255)" fill-opacity="1.000000" />
<path d="M 65.562012 157.202148 L 67.071289 159.221680 L 66.244141 159.221680 L 64.498535 157.202148 Z " fill="rgb(255, 255, 255)" fill-opacity="1.000000" />
<path d="M 100.562012 170.202148 L 102.071289 172.221680 L 101.244141 172.221680 L 99.498535 170.202148 Z " fill="rgb(255, 255, 255)" fill-opacity="1.000000" />
<path d="M 156.562012 183.202148 L 158.071289 185.221680 L 157.244141 185.221680 L 155.498535 183.202148 Z " fill="rgb(255, 255, 255)" fill-opacity="1.000000" />
<path d="M 160.892578 189.335938 L 160.892578 188.412109 L 167.729980 188.412109 L 167.729980 189.335938 Z " fill="rgb(255, 255, 255)" fill-opacity="1.000000" />
<path d="M 167.892578 189.335938 L 167.892578 188.412109 L 174.729980 188.412109 L 174.729980 189.335938 Z " fill="rgb(255, 255, 255)" fill-opacity="1.000000" />
<path d="M 174.892578 189.335938 L 174.892578 188.412109 L 181.729980 188.412109 L 181.729980 189.335938 Z " fill="rgb(255, 255, 255)" fill-opacity="1.000000" />
<path d="M 181.892578 189.335938 L 181.892578 188.412109 L 188.729980 188.412109 L 188.729980 189.335938 Z " fill="rgb(255, 255, 255)" fill-opacity="1.000000" />
<path d="M 188.892578 189.335938 L 188.892578 188.412109 L 195.729980 188.412109 L 195.729980 189.335938 Z " fill="rgb(255, 255, 255)" fill-opacity="1.000000" />
<path d="M 195.892578 189.335938 L 195.892578 188.412109 L 202.729980 188.412109 L 202.729980 189.335938 Z " fill="rgb(255, 255, 255)" fill-opacity="1.000000" />
<path d="M 202.892578 189.335938 L 202.892578 188.412109 L 209.729980 188.412109 L 209.729980 189.335938 Z " fill="rgb(255, 255, 255)" fill-opacity="1.000000" />
<path d="M 209.892578 189.335938 L 209.892578 188.412109 L 216.729980 188.412109 L 216.729980 189.335938 Z " fill="rgb(255, 255, 255)" fill-opacity="1.000000" />
<path d="M 216.892578 189.335938 L 216.892578 188.412109 L 223.729980 188.412109 L 223.729980 189.335938 Z " fill="rgb(255, 255, 255)" fill-opacity="1.000000" />
<path d="M 223.892578 189.335938 L 223.892578 188.412109 L 230.729980 188.412109 L 230.729980 189.335938 Z " fill="rgb(255, 255, 255)" fill-opacity="1.000000" />
<path d="M 230.892578 189.335938 L 230.892578 188.412109 L 237.729980 188.412109 L 237.729980 189.335938 Z " fill="rgb(255, 255, 255)" fill-opacity="1.000000" />
<path d="M 237.892578 189.335938 L 237.892578 188.412109 L 244.729980 188.412109 L 244.729980 189.335938 Z " fill="rgb(255, 255, 255)" fill-opacity="1.000000" />
<path d="M 244.892578 189.335938 L 244.892578 188.412109 L 251.729980 188.412109 L 251.729980 189.335938 Z " fill="rgb(255, 255, 255)" fill-opacity="1.000000" />
<path d="M 251.892578 189.335938 L 251.892578 188.412109 L 258.729980 188.412109 L 258.729980 189.335938 Z " fill="rgb(255, 255, 255)" fill-opacity="1.000000" />
<path d="M 258.892578 189.335938 L 258.892578 188.412109 L 265.729980 188.412109 L 265.729980 189.335938 Z " fill="rgb(255, 255, 255)" fill-opacity="1.000000" />
<path d="M 265.892578 189.335938 L 265.892578 188.412109 L 272.729980 188.412109 L 272.729980 189.335938 Z " fill="rgb(255, 255, 255)" fill-opacity="1.000000" />
<path d="M 272.892578 189.335938 L 272.892578 188.412109 L 279.729980 188.412109 L 279.729980 189.335938 Z " fill="rgb(255, 255, 255)" fill-opacity="1.000000" />
<path d="M 279.892578 189.335938 L 279.892578 188.412109 L 286.729980 188.412109 L 286.729980 189.335938 Z " fill="rgb(255, 255, 255)" fill-opacity="1.000000" />
<path d="M 286.892578 189.335938 L 286.892578 188.412109 L 293.729980 188.412109 L 293.729980 189.335938 Z " fill="rgb(255, 255, 255)" fill-opacity="1.000000" />
<path d="M 293.892578 189.335938 L 293.892578 188.412109 L 300.729980 188.412109 L 300.729980 189.335938 Z " fill="rgb(255, 255, 255)" fill-opacity="1.000000" />
<path d="M 300.892578 189.335938 L 300.892578 188.412109 L 307.729980 188.412109 L 307.729980 189.335938 Z " fill="rgb(255, 255, 255)" fill-opacity="1.000000" />
<path d="M 307.892578 189.335938 L 307.892578 188.412109 L 314.729980 188.412109 L 314.729980 189.335938 Z " fill="rgb(255, 255, 255)" fill-opacity="1.000000" />
<path d="M 314.892578 189.335938 L 314.892578 188.412109 L 321.729980 188.412109 L 321.729980 189.335938 Z " fill="rgb(255, 255, 255)" fill-opacity="1.000000" />
<path d="M 325.985352 183.631836 L 325.985352 186.978027 L 324.782227 186.978027 L 324.782227 183.631836 Z " fill="rgb(255, 255, 255)" fill-opacity="1.000000" />
<path d="M 104.892578 176.335938 L 104.892578 175.412109 L 111.729980 175.412109 L 111.729980 176.335938 Z " fill="rgb(255, 255, 255)" fill-opacity="1.000000" />
<path d="M 111.892578 176.335938 L 111.892578 175.412109 L 118.729980 175.412109 L 118.729980 176.335938 Z " fill="rgb(255, 255, 255)" fill-opacity="1.000000" />
<path d="M 118.892578 176.335938 L 118.892578 175.412109 L 125.729980 175.412109 L 125.729980 176.335938 Z " fill="rgb(255, 255, 255)" fill-opacity="1.000000" />
<path d="M 125.892578 176.335938 L 125.892578 175.412109 L 132.729980 175.412109 L 132.729980 176.335938 Z " fill="rgb(255, 255, 255)" fill-opacity="1.000000" />
<path d="M 132.892578 176.335938 L 132.892578 175.412109 L 139.729980 175.412109 L 139.729980 176.335938 Z " fill="rgb(255, 255, 255)" fill-opacity="1.000000" />
<path d="M 139.892578 176.335938 L 139.892578 175.412109 L 146.729980 175.412109 L 146.729980 176.335938 Z " fill="rgb(255, 255, 255)" fill-opacity="1.000000" />
<path d="M 149.089355 176.830078 L 150.979980 176.830078 L 150.979980 179.000000 L 149.089355 179.000000 Z " fill="rgb(255, 255, 255)" fill-opacity="1.000000" />
<path d="M 335.574219 180.020508 L 335.574219 180.933594 L 329.000000 180.933594 L 329.000000 180.020508 Z " fill="rgb(255, 255, 255)" fill-opacity="1.000000" />
<path d="M 338.089355 176.830078 L 339.979980 176.830078 L 339.979980 179.000000 L 338.089355 179.000000 Z " fill="rgb(255, 255, 255)" fill-opacity="1.000000" />
<path d="M 342.892578 176.335938 L 342.892578 175.412109 L 349.729980 175.412109 L 349.729980 176.335938 Z " fill="rgb(255, 255, 255)" fill-opacity="1.000000" />
<path d="M 349.892578 176.335938 L 349.892578 175.412109 L 356.729980 175.412109 L 356.729980 176.335938 Z " fill="rgb(255, 255, 255)" fill-opacity="1.000000" />
<path d="M 356.892578 176.335938 L 356.892578 175.412109 L 363.729980 175.412109 L 363.729980 176.335938 Z " fill="rgb(255, 255, 255)" fill-opacity="1.000000" />
<path d="M 363.892578 176.335938 L 363.892578 175.412109 L 370.729980 175.412109 L 370.729980 176.335938 Z " fill="rgb(255, 255, 255)" fill-opacity="1.000000" />
<path d="M 370.892578 176.335938 L 370.892578 175.412109 L 377.729980 175.412109 L 377.729980 176.335938 Z " fill="rgb(255, 255, 255)" fill-opacity="1.000000" />
<path d="M 381.985352 170.631836 L 381.985352 173.978027 L 380.782227 173.978027 L 380.782227 170.631836 Z " fill="rgb(255, 255, 255)" fill-opacity="1.000000" />
<path d="M 69.892578 163.335938 L 69.892578 162.412109 L 76.729980 162.412109 L 76.729980 163.335938 Z " fill="rgb(255, 255, 255)" fill-opacity="1.000000" />
<path d="M 76.892578 163.335938 L 76.892578 162.412109 L 83.729980 162.412109 L 83.729980 163.335938 Z " fill="rgb(255, 255, 255)" fill-opacity="1.000000" />
<path d="M 83.892578 163.335938 L 83.892578 162.412109 L 90.729980 162.412109 L 90.729980 163.335938 Z " fill="rgb(255, 255, 255)" fill-opacity="1.000000" />
<path d="M 93.089355 163.830078 L 94.979980 163.830078 L 94.979980 166.000000 L 93.089355 166.000000 Z " fill="rgb(255, 255, 255)" fill-opacity="1.000000" />
<path d="M 391.574219 167.020508 L 391.574219 167.933594 L 385.000000 167.933594 L 385.000000 167.020508 Z " fill="rgb(255, 255, 255)" fill-opacity="1.000000" />
<path d="M 394.089355 163.830078 L 395.979980 163.830078 L 395.979980 166.000000 L 394.089355 166.000000 Z " fill="rgb(255, 255, 255)" fill-opacity="1.000000" />
<path d="M 398.892578 163.335938 L 398.892578 162.412109 L 405.729980 162.412109 L 405.729980 163.335938 Z " fill="rgb(255, 255, 255)" fill-opacity="1.000000" />
<path d="M 405.892578 163.335938 L 405.892578 162.412109 L 412.729980 162.412109 L 412.729980 163.335938 Z " fill="rgb(255, 255, 255)" fill-opacity="1.000000" />
<path d="M 416.985352 157.631836 L 416.985352 160.978027 L 415.782227 160.978027 L 415.782227 157.631836 Z " fill="rgb(255, 255, 255)" fill-opacity="1.000000" />
<path d="M 48.892578 150.335938 L 48.892578 149.412109 L 55.729980 149.412109 L 55.729980 150.335938 Z " fill="rgb(255, 255, 255)" fill-opacity="1.000000" />
<path d="M 58.089355 150.830078 L 59.979980 150.830078 L 59.979980 153.000000 L 58.089355 153.000000 Z " fill="rgb(255, 255, 255)" fill-opacity="1.000000" />
<path d="M 422.374023 151.061035 L 424.049805 151.061035 L 424.049805 152.484375 L 422.857422 154.799316 L 421.783203 154.804688 L 422.374023 152.484375 Z " fill="rgb(255, 255, 255)" fill-opacity="1.000000" />
<path d="M 426.892578 150.335938 L 426.892578 149.412109 L 433.729980 149.412109 L 433.729980 150.335938 Z " fill="rgb(255, 255, 255)" fill-opacity="1.000000" />
<path d="M 437.985352 144.631836 L 437.985352 147.978027 L 436.782227 147.978027 L 436.782227 144.631836 Z " fill="rgb(255, 255, 255)" fill-opacity="1.000000" />
<path d="M 27.892578 137.335938 L 27.892578 136.412109 L 34.729980 136.412109 L 34.729980 137.335938 Z " fill="rgb(255, 255, 255)" fill-opacity="1.000000" />
<path d="M 37.089355 137.830078 L 38.979980 137.830078 L 38.979980 140.000000 L 37.089355 140.000000 Z " fill="rgb(255, 255, 255)" fill-opacity="1.000000" />
<path d="M 443.374023 138.061035 L 445.049805 138.061035 L 445.049805 139.484375 L 443.857422 141.799316 L 442.783203 141.804688 L 443.374023 139.484375 Z " fill="rgb(255, 255, 255)" fill-opacity="1.000000" />
<path d="M 447.892578 137.335938 L 447.892578 136.412109 L 454.729980 136.412109 L 454.729980 137.335938 Z " fill="rgb(255, 255, 255)" fill-opacity="1.000000" />
<path d="M 458.985352 131.631836 L 458.985352 134.978027 L 457.782227 134.978027 L 457.782227 131.631836 Z " fill="rgb(255, 255, 255)" fill-opacity="1.000000" />
<path d="M 461.414551 130.319336 L 468.251953 116.300781 L 469.208008 116.300781 L 462.370605 130.319336 Z " fill="rgb(255, 255, 255)" fill-opacity="1.000000" />
<path d="M 468.414551 117.319336 L 475.251953 103.300781 L 476.208008 103.300781 L 469.370605 117.319336 Z " fill="rgb(255, 255, 255)" fill-opacity="1.000000" />
<path d="M 478.374023 99.061035 L 480.049805 99.061035 L 480.049805 100.484375 L 478.991699 102.536133 L 477.842285 102.536133 L 478.374023 100.484375 Z M 478.304199 94.989746 L 479.979980 94.989746 L 479.979980 96.928711 L 478.304199 96.928711 Z " fill="rgb(255, 255, 255)" fill-opacity="1.000000" />
<path d="M 478.304199 81.989746 L 479.979980 81.989746 L 479.979980 83.928711 L 478.304199 83.928711 Z M 478.304199 86.044922 L 479.979980 86.044922 L 479.979980 88.000000 L 478.304199 88.000000 Z " fill="rgb(255, 255, 255)" fill-opacity="1.000000" />
<path d="M 6.414551 78.319336 L 13.251953 64.300781 L 14.208008 64.300781 L 7.370605 78.319336 Z " fill="rgb(255, 255, 255)" fill-opacity="1.000000" />
<path d="M 476.208008 78.319336 L 475.251953 78.319336 L 468.414551 64.300781 L 469.370605 64.300781 Z " fill="rgb(255, 255, 255)" fill-opacity="1.000000" />
<path d="M 16.374023 60.061035 L 18.049805 60.061035 L 18.049805 61.484375 L 16.857422 63.799316 L 15.783203 63.804688 L 16.374023 61.484375 Z " fill="rgb(255, 255, 255)" fill-opacity="1.000000" />
<path d="M 20.892578 59.335938 L 20.892578 58.412109 L 27.729980 58.412109 L 27.729980 59.335938 Z " fill="rgb(255, 255, 255)" fill-opacity="1.000000" />
<path d="M 31.985352 53.631836 L 31.985352 56.978027 L 30.782227 56.978027 L 30.782227 53.631836 Z " fill="rgb(255, 255, 255)" fill-opacity="1.000000" />
<path d="M 451.985352 53.631836 L 451.985352 56.978027 L 450.782227 56.978027 L 450.782227 53.631836 Z " fill="rgb(255, 255, 255)" fill-opacity="1.000000" />
<path d="M 454.892578 59.335938 L 454.892578 58.412109 L 461.729980 58.412109 L 461.729980 59.335938 Z " fill="rgb(255, 255, 255)" fill-opacity="1.000000" />
<path d="M 464.089355 59.830078 L 465.979980 59.830078 L 465.979980 62.000000 L 464.089355 62.000000 Z " fill="rgb(255, 255, 255)" fill-opacity="1.000000" />
<path d="M 37.374023 47.061035 L 39.049805 47.061035 L 39.049805 48.484375 L 37.857422 50.799316 L 36.783203 50.804688 L 37.374023 48.484375 Z " fill="rgb(255, 255, 255)" fill-opacity="1.000000" />
<path d="M 41.892578 46.335938 L 41.892578 45.412109 L 48.729980 45.412109 L 48.729980 46.335938 Z " fill="rgb(255, 255, 255)" fill-opacity="1.000000" />
<path d="M 52.985352 40.631836 L 52.985352 43.978027 L 51.782227 43.978027 L 51.782227 40.631836 Z " fill="rgb(255, 255, 255)" fill-opacity="1.000000" />
<path d="M 430.985352 40.631836 L 430.985352 43.978027 L 429.782227 43.978027 L 429.782227 40.631836 Z " fill="rgb(255, 255, 255)" fill-opacity="1.000000" />
<path d="M 433.892578 46.335938 L 433.892578 45.412109 L 440.729980 45.412109 L 440.729980 46.335938 Z " fill="rgb(255, 255, 255)" fill-opacity="1.000000" />
<path d="M 443.089355 46.830078 L 444.979980 46.830078 L 444.979980 49.000000 L 443.089355 49.000000 Z " fill="rgb(255, 255, 255)" fill-opacity="1.000000" />
<path d="M 62.574219 37.020508 L 62.574219 37.933594 L 56.000000 37.933594 L 56.000000 37.020508 Z " fill="rgb(255, 255, 255)" fill-opacity="1.000000" />
<path d="M 65.089355 33.830078 L 66.979980 33.830078 L 66.979980 36.000000 L 65.089355 36.000000 Z " fill="rgb(255, 255, 255)" fill-opacity="1.000000" />
<path d="M 69.892578 33.335938 L 69.892578 32.412109 L 76.729980 32.412109 L 76.729980 33.335938 Z " fill="rgb(255, 255, 255)" fill-opacity="1.000000" />
<path d="M 76.892578 33.335938 L 76.892578 32.412109 L 83.729980 32.412109 L 83.729980 33.335938 Z " fill="rgb(255, 255, 255)" fill-opacity="1.000000" />
<path d="M 87.985352 27.631836 L 87.985352 30.978027 L 86.782227 30.978027 L 86.782227 27.631836 Z " fill="rgb(255, 255, 255)" fill-opacity="1.000000" />
<path d="M 394.562012 27.202148 L 396.071289 29.221680 L 395.244141 29.221680 L 393.498535 27.202148 Z " fill="rgb(255, 255, 255)" fill-opacity="1.000000" />
<path d="M 398.892578 33.335938 L 398.892578 32.412109 L 405.729980 32.412109 L 405.729980 33.335938 Z " fill="rgb(255, 255, 255)" fill-opacity="1.000000" />
<path d="M 405.892578 33.335938 L 405.892578 32.412109 L 412.729980 32.412109 L 412.729980 33.335938 Z " fill="rgb(255, 255, 255)" fill-opacity="1.000000" />
<path d="M 412.892578 33.335938 L 412.892578 32.412109 L 419.729980 32.412109 L 419.729980 33.335938 Z " fill="rgb(255, 255, 255)" fill-opacity="1.000000" />
<path d="M 422.089355 33.830078 L 423.979980 33.830078 L 423.979980 36.000000 L 422.089355 36.000000 Z " fill="rgb(255, 255, 255)" fill-opacity="1.000000" />
<path d="M 97.574219 24.020508 L 97.574219 24.933594 L 91.000000 24.933594 L 91.000000 24.020508 Z " fill="rgb(255, 255, 255)" fill-opacity="1.000000" />
<path d="M 100.089355 20.830078 L 101.979980 20.830078 L 101.979980 23.000000 L 100.089355 23.000000 Z " fill="rgb(255, 255, 255)" fill-opacity="1.000000" />
<path d="M 104.892578 20.335938 L 104.892578 19.412109 L 111.729980 19.412109 L 111.729980 20.335938 Z " fill="rgb(255, 255, 255)" fill-opacity="1.000000" />
<path d="M 111.892578 20.335938 L 111.892578 19.412109 L 118.729980 19.412109 L 118.729980 20.335938 Z " fill="rgb(255, 255, 255)" fill-opacity="1.000000" />
<path d="M 118.892578 20.335938 L 118.892578 19.412109 L 125.729980 19.412109 L 125.729980 20.335938 Z " fill="rgb(255, 255, 255)" fill-opacity="1.000000" />
<path d="M 125.892578 20.335938 L 125.892578 19.412109 L 132.729980 19.412109 L 132.729980 20.335938 Z " fill="rgb(255, 255, 255)" fill-opacity="1.000000" />
<path d="M 132.892578 20.335938 L 132.892578 19.412109 L 139.729980 19.412109 L 139.729980 20.335938 Z " fill="rgb(255, 255, 255)" fill-opacity="1.000000" />
<path d="M 143.985352 14.631836 L 143.985352 17.978027 L 142.782227 17.978027 L 142.782227 14.631836 Z " fill="rgb(255, 255, 255)" fill-opacity="1.000000" />
<path d="M 338.562012 14.202148 L 340.071289 16.221680 L 339.244141 16.221680 L 337.498535 14.202148 Z " fill="rgb(255, 255, 255)" fill-opacity="1.000000" />
<path d="M 342.892578 20.335938 L 342.892578 19.412109 L 349.729980 19.412109 L 349.729980 20.335938 Z " fill="rgb(255, 255, 255)" fill-opacity="1.000000" />
<path d="M 349.892578 20.335938 L 349.892578 19.412109 L 356.729980 19.412109 L 356.729980 20.335938 Z " fill="rgb(255, 255, 255)" fill-opacity="1.000000" />
<path d="M 356.892578 20.335938 L 356.892578 19.412109 L 363.729980 19.412109 L 363.729980 20.335938 Z " fill="rgb(255, 255, 255)" fill-opacity="1.000000" />
<path d="M 363.892578 20.335938 L 363.892578 19.412109 L 370.729980 19.412109 L 370.729980 20.335938 Z " fill="rgb(255, 255, 255)" fill-opacity="1.000000" />
<path d="M 370.892578 20.335938 L 370.892578 19.412109 L 377.729980 19.412109 L 377.729980 20.335938 Z " fill="rgb(255, 255, 255)" fill-opacity="1.000000" />
<path d="M 377.892578 20.335938 L 377.892578 19.412109 L 384.729980 19.412109 L 384.729980 20.335938 Z " fill="rgb(255, 255, 255)" fill-opacity="1.000000" />
<path d="M 387.089355 20.830078 L 388.979980 20.830078 L 388.979980 23.000000 L 387.089355 23.000000 Z " fill="rgb(255, 255, 255)" fill-opacity="1.000000" />
<path d="M 149.089355 7.830078 L 150.979980 7.830078 L 150.979980 10.000000 L 149.089355 10.000000 Z " fill="rgb(255, 255, 255)" fill-opacity="1.000000" />
<path d="M 153.892578 7.335938 L 153.892578 6.412109 L 160.729980 6.412109 L 160.729980 7.335938 Z " fill="rgb(255, 255, 255)" fill-opacity="1.000000" />
<path d="M 160.892578 7.335938 L 160.892578 6.412109 L 167.729980 6.412109 L 167.729980 7.335938 Z " fill="rgb(255, 255, 255)" fill-opacity="1.000000" />
<path d="M 167.892578 7.335938 L 167.892578 6.412109 L 174.729980 6.412109 L 174.729980 7.335938 Z " fill="rgb(255, 255, 255)" fill-opacity="1.000000" />
<path d="M 174.892578 7.335938 L 174.892578 6.412109 L 181.729980 6.412109 L 181.729980 7.335938 Z " fill="rgb(255, 255, 255)" fill-opacity="1.000000" />
<path d="M 181.892578 7.335938 L 181.892578 6.412109 L 188.729980 6.412109 L 188.729980 7.335938 Z " fill="rgb(255, 255, 255)" fill-opacity="1.000000" />
<path d="M 188.892578 7.335938 L 188.892578 6.412109 L 195.729980 6.412109 L 195.729980 7.335938 Z " fill="rgb(255, 255, 255)" fill-opacity="1.000000" />
<path d="M 195.892578 7.335938 L 195.892578 6.412109 L 202.729980 6.412109 L 202.729980 7.335938 Z " fill="rgb(255, 255, 255)" fill-opacity="1.000000" />
<path d="M 202.892578 7.335938 L 202.892578 6.412109 L 209.729980 6.412109 L 209.729980 7.335938 Z " fill="rgb(255, 255, 255)" fill-opacity="1.000000" />
<path d="M 209.892578 7.335938 L 209.892578 6.412109 L 216.729980 6.412109 L 216.729980 7.335938 Z " fill="rgb(255, 255, 255)" fill-opacity="1.000000" />
<path d="M 216.892578 7.335938 L 216.892578 6.412109 L 223.729980 6.412109 L 223.729980 7.335938 Z " fill="rgb(255, 255, 255)" fill-opacity="1.000000" />
<path d="M 223.892578 7.335938 L 223.892578 6.412109 L 230.729980 6.412109 L 230.729980 7.335938 Z " fill="rgb(255, 255, 255)" fill-opacity="1.000000" />
<path d="M 230.892578 7.335938 L 230.892578 6.412109 L 237.729980 6.412109 L 237.729980 7.335938 Z " fill="rgb(255, 255, 255)" fill-opacity="1.000000" />
<path d="M 237.892578 7.335938 L 237.892578 6.412109 L 244.729980 6.412109 L 244.729980 7.335938 Z " fill="rgb(255, 255, 255)" fill-opacity="1.000000" />
<path d="M 244.892578 7.335938 L 244.892578 6.412109 L 251.729980 6.412109 L 251.729980 7.335938 Z " fill="rgb(255, 255, 255)" fill-opacity="1.000000" />
<path d="M 251.892578 7.335938 L 251.892578 6.412109 L 258.729980 6.412109 L 258.729980 7.335938 Z " fill="rgb(255, 255, 255)" fill-opacity="1.000000" />
<path d="M 258.892578 7.335938 L 258.892578 6.412109 L 265.729980 6.412109 L 265.729980 7.335938 Z " fill="rgb(255, 255, 255)" fill-opacity="1.000000" />
<path d="M 265.892578 7.335938 L 265.892578 6.412109 L 272.729980 6.412109 L 272.729980 7.335938 Z " fill="rgb(255, 255, 255)" fill-opacity="1.000000" />
<path d="M 272.892578 7.335938 L 272.892578 6.412109 L 279.729980 6.412109 L 279.729980 7.335938 Z " fill="rgb(255, 255, 255)" fill-opacity="1.000000" />
<path d="M 279.892578 7.335938 L 279.892578 6.412109 L 286.729980 6.412109 L 286.729980 7.335938 Z " fill="rgb(255, 255, 255)" fill-opacity="1.000000" />
<path d="M 286.892578 7.335938 L 286.892578 6.412109 L 293.729980 6.412109 L 293.729980 7.335938 Z " fill="rgb(255, 255, 255)" fill-opacity="1.000000" />
<path d="M 293.892578 7.335938 L 293.892578 6.412109 L 300.729980 6.412109 L 300.729980 7.335938 Z " fill="rgb(255, 255, 255)" fill-opacity="1.000000" />
<path d="M 300.892578 7.335938 L 300.892578 6.412109 L 307.729980 6.412109 L 307.729980 7.335938 Z " fill="rgb(255, 255, 255)" fill-opacity="1.000000" />
<path d="M 307.892578 7.335938 L 307.892578 6.412109 L 314.729980 6.412109 L 314.729980 7.335938 Z " fill="rgb(255, 255, 255)" fill-opacity="1.000000" />
<path d="M 314.892578 7.335938 L 314.892578 6.412109 L 321.729980 6.412109 L 321.729980 7.335938 Z " fill="rgb(255, 255, 255)" fill-opacity="1.000000" />
<path d="M 321.892578 7.335938 L 321.892578 6.412109 L 328.729980 6.412109 L 328.729980 7.335938 Z " fill="rgb(255, 255, 255)" fill-opacity="1.000000" />
<path d="M 331.089355 7.830078 L 332.979980 7.830078 L 332.979980 10.000000 L 331.089355 10.000000 Z " fill="rgb(255, 255, 255)" fill-opacity="1.000000" />
</svg>