<svg xmlns="http://www.w3.org/2000/svg" version="1.1" width="64" height="196">
<path d="M 4.774902 144.980957 L 5.795410 144.980957 L 1.573730 154.020508 L 0.547852 154.020508 Z " fill="rgb(255, 255, 255)" fill-opacity="1.000000" />
<path d="M 3.985352 157.594238 L 3.985352 168.594238 L 3.061523 168.594238 L 3.061523 157.594238 Z " fill="rgb(255, 255, 255)" fill-opacity="1.000000" />
<path d="M 3.985352 170.594238 L 3.985352 181.594238 L 3.061523 181.594238 L 3.061523 170.594238 Z " fill="rgb(255, 255, 255)" fill-opacity="1.000000" />
<path d="M 3.985352 183.594238 L 3.985352 194.594238 L 3.061523 194.594238 L 3.061523 183.594238 Z " fill="rgb(255, 255, 255)" fill-opacity="1.000000" />
<path d="M 13.574219 193.020508 L 13.574219 193.933594 L 7.000000 193.933594 L 7.000000 193.020508 Z " fill="rgb(255, 255, 255)" fill-opacity="1.000000" />
<path d="M 17.985352 183.594238 L 17.985352 194.594238 L 17.061523 194.594238 L 17.061523 183.594238 Z " fill="rgb(255, 255, 255)" fill-opacity="1.000000" />
<path d="M 27.574219 193.020508 L 27.574219 193.933594 L 21.000000 193.933594 L 21.000000 193.020508 Z " fill="rgb(255, 255, 255)" fill-opacity="1.000000" />
<path d="M 31.985352 183.594238 L 31.985352 194.594238 L 31.061523 194.594238 L 31.061523 183.594238 Z " fill="rgb(255, 255, 255)" fill-opacity="1.000000" />
<path d="M 41.574219 193.020508 L 41.574219 193.933594 L 35.000000 193.933594 L 35.000000 193.020508 Z " fill="rgb(255, 255, 255)" fill-opacity="1.000000" />
<path d="M 45.985352 183.594238 L 45.985352 194.594238 L 45.061523 194.594238 L 45.061523 183.594238 Z " fill="rgb(255, 255, 255)" fill-opacity="1.000000" />
<path d="M 55.574219 193.020508 L 55.574219 193.933594 L 49.000000 193.933594 L 49.000000 193.020508 Z " fill="rgb(255, 255, 255)" fill-opacity="1.000000" />
<path d="M 59.985352 183.594238 L 59.985352 194.594238 L 59.061523 194.594238 L 59.061523 183.594238 Z " fill="rgb(255, 255, 255)" fill-opacity="1.000000" />
<path d="M 17.985352 157.594238 L 17.985352 168.594238 L 17.061523 168.594238 L 17.061523 157.594238 Z " fill="rgb(255, 255, 255)" fill-opacity="1.000000" />
<path d="M 17.985352 170.594238 L 17.985352 181.594238 L 17.061523 181.594238 L 17.061523 170.594238 Z " fill="rgb(255, 255, 255)" fill-opacity="1.000000" />
<path d="M 31.985352 157.594238 L 31.985352 168.594238 L 31.061523 168.594238 L 31.061523 157.594238 Z " fill="rgb(255, 255, 255)" fill-opacity="1.000000" />
<path d="M 31.985352 170.594238 L 31.985352 181.594238 L 31.061523 181.594238 L 31.061523 170.594238 Z " fill="rgb(255, 255, 255)" fill-opacity="1.000000" />
<path d="M 45.985352 157.594238 L 45.985352 168.594238 L 45.061523 168.594238 L 45.061523 157.594238 Z " fill="rgb(255, 255, 255)" fill-opacity="1.000000" />
<path d="M 45.985352 170.594238 L 45.985352 181.594238 L 45.061523 181.594238 L 45.061523 170.594238 Z " fill="rgb(255, 255, 255)" fill-opacity="1.000000" />
<path d="M 59.985352 157.594238 L 59.985352 168.594238 L 59.061523 168.594238 L 59.061523 157.594238 Z " fill="rgb(255, 255, 255)" fill-opacity="1.000000" />
<path d="M 59.985352 170.594238 L 59.985352 181.594238 L 59.061523 181.594238 L 59.061523 170.594238 Z " fill="rgb(255, 255, 255)" fill-opacity="1.000000" />
<path d="M 17.985352 144.594238 L 17.985352 155.594238 L 17.061523 155.594238 L 17.061523 144.594238 Z " fill="rgb(255, 255, 255)" fill-opacity="1.000000" />
<path d="M 31.985352 144.594238 L 31.985352 155.594238 L 31.061523 155.594238 L 31.061523 144.594238 Z " fill="rgb(255, 255, 255)" fill-opacity="1.000000" />
<path d="M 45.985352 144.594238 L 45.985352 155.594238 L 45.061523 155.594238 L 45.061523 144.594238 Z " fill="rgb(255, 255, 255)" fill-opacity="1.000000" />
<path d="M 57.573730 144.980957 L 61.795410 154.020508 L 60.774902 154.020508 L 56.547852 144.980957 Z " fill="rgb(255, 255, 255)" fill-opacity="1.000000" />
<path d="M 11.774902 131.980957 L 12.795410 131.980957 L 8.573730 141.020508 L 7.547852 141.020508 Z " fill="rgb(255, 255, 255)" fill-opacity="1.000000" />
<path d="M 17.985352 131.594238 L 17.985352 142.594238 L 17.061523 142.594238 L 17.061523 131.594238 Z " fill="rgb(255, 255, 255)" fill-opacity="1.000000" />
<path d="M 30.089355 137.830078 L 31.979980 137.830078 L 31.979980 140.000000 L 30.089355 140.000000 Z " fill="rgb(255, 255, 255)" fill-opacity="1.000000" />
<path d="M 45.985352 131.594238 L 45.985352 142.594238 L 45.061523 142.594238 L 45.061523 131.594238 Z " fill="rgb(255, 255, 255)" fill-opacity="1.000000" />
<path d="M 50.573730 131.980957 L 54.795410 141.020508 L 53.774902 141.020508 L 49.547852 131.980957 Z " fill="rgb(255, 255, 255)" fill-opacity="1.000000" />
<path d="M 18.774902 40.980957 L 19.795410 40.980957 L 15.573730 50.020508 L 14.547852 50.020508 Z " fill="rgb(255, 255, 255)" fill-opacity="1.000000" />
<path d="M 17.985352 53.594238 L 17.985352 64.594238 L 17.061523 64.594238 L 17.061523 53.594238 Z " fill="rgb(255, 255, 255)" fill-opacity="1.000000" />
<path d="M 17.985352 66.594238 L 17.985352 77.594238 L 17.061523 77.594238 L 17.061523 66.594238 Z " fill="rgb(255, 255, 255)" fill-opacity="1.000000" />
<path d="M 17.985352 79.594238 L 17.985352 90.594238 L 17.061523 90.594238 L 17.061523 79.594238 Z " fill="rgb(255, 255, 255)" fill-opacity="1.000000" />
<path d="M 17.985352 92.594238 L 17.985352 103.594238 L 17.061523 103.594238 L 17.061523 92.594238 Z " fill="rgb(255, 255, 255)" fill-opacity="1.000000" />
<path d="M 17.985352 105.594238 L 17.985352 116.594238 L 17.061523 116.594238 L 17.061523 105.594238 Z " fill="rgb(255, 255, 255)" fill-opacity="1.000000" />
<path d="M 17.985352 118.594238 L 17.985352 129.594238 L 17.061523 129.594238 L 17.061523 118.594238 Z " fill="rgb(255, 255, 255)" fill-opacity="1.000000" />
<path d="M 32.860840 70.998535 Q 32.860840 69.231445 32.498291 68.474121 Q 32.135742 67.716797 31.308594 67.716797 Q 30.486816 67.716797 30.124268 68.474121 Q 29.761719 69.231445 29.761719 70.998535 Q 29.761719 72.760254 30.124268 73.517578 Q 30.486816 74.274902 31.308594 74.274902 Q 32.135742 74.274902 32.498291 73.520264 Q 32.860840 72.765625 32.860840 70.998535 Z M 33.994141 70.998535 Q 33.994141 73.093262 33.330811 74.124512 Q 32.667480 75.155762 31.308594 75.155762 Q 29.949707 75.155762 29.289062 74.129883 Q 28.628418 73.104004 28.628418 70.998535 Q 28.628418 68.898438 29.291748 67.867188 Q 29.955078 66.835938 31.308594 66.835938 Q 32.667480 66.835938 33.330811 67.867188 Q 33.994141 68.898438 33.994141 70.998535 Z " fill="rgb(255, 255, 255)" fill-opacity="1.000000" />
<path d="M 32.860840 96.998535 Q 32.860840 95.231445 32.498291 94.474121 Q 32.135742 93.716797 31.308594 93.716797 Q 30.486816 93.716797 30.124268 94.474121 Q 29.761719 95.231445 29.761719 96.998535 Q 29.761719 98.760254 30.124268 99.517578 Q 30.486816 100.274902 31.308594 100.274902 Q 32.135742 100.274902 32.498291 99.520264 Q 32.860840 98.765625 32.860840 96.998535 Z M 33.994141 96.998535 Q 33.994141 99.093262 33.330811 100.124512 Q 32.667480 101.155762 31.308594 101.155762 Q 29.949707 101.155762 29.289062 100.129883 Q 28.628418 99.104004 28.628418 96.998535 Q 28.628418 94.898438 29.291748 93.867188 Q 29.955078 92.835938 31.308594 92.835938 Q 32.667480 92.835938 33.330811 93.867188 Q 33.994141 94.898438 33.994141 96.998535 Z " fill="rgb(255, 255, 255)" fill-opacity="1.000000" />
<path d="M 32.860840 122.998535 Q 32.860840 121.231445 32.498291 120.474121 Q 32.135742 119.716797 31.308594 119.716797 Q 30.486816 119.716797 30.124268 120.474121 Q 29.761719 121.231445 29.761719 122.998535 Q 29.761719 124.760254 30.124268 125.517578 Q 30.486816 126.274902 31.308594 126.274902 Q 32.135742 126.274902 32.498291 125.520264 Q 32.860840 124.765625 32.860840 122.998535 Z M 33.994141 122.998535 Q 33.994141 125.093262 33.330811 126.124512 Q 32.667480 127.155762 31.308594 127.155762 Q 29.949707 127.155762 29.289062 126.129883 Q 28.628418 125.104004 28.628418 122.998535 Q 28.628418 120.898438 29.291748 119.867188 Q 29.955078 118.835938 31.308594 118.835938 Q 32.667480 118.835938 33.330811 119.867188 Q 33.994141 120.898438 33.994141 122.998535 Z " fill="rgb(255, 255, 255)" fill-opacity="1.000000" />
<path d="M 45.985352 118.594238 L 45.985352 129.594238 L 45.061523 129.594238 L 45.061523 118.594238 Z " fill="rgb(255, 255, 255)" fill-opacity="1.000000" />
<path d="M 45.985352 105.594238 L 45.985352 116.594238 L 45.061523 116.594238 L 45.061523 105.594238 Z " fill="rgb(255, 255, 255)" fill-opacity="1.000000" />
<path d="M 45.985352 92.594238 L 45.985352 103.594238 L 45.061523 103.594238 L 45.061523 92.594238 Z " fill="rgb(255, 255, 255)" fill-opacity="1.000000" />
<path d="M 45.985352 79.594238 L 45.985352 90.594238 L 45.061523 90.594238 L 45.061523 79.594238 Z " fill="rgb(255, 255, 255)" fill-opacity="1.000000" />
<path d="M 45.985352 66.594238 L 45.985352 77.594238 L 45.061523 77.594238 L 45.061523 66.594238 Z " fill="rgb(255, 255, 255)" fill-opacity="1.000000" />
<path d="M 45.985352 53.594238 L 45.985352 64.594238 L 45.061523 64.594238 L 45.061523 53.594238 Z " fill="rgb(255, 255, 255)" fill-opacity="1.000000" />
<path d="M 27.574219 50.020508 L 27.574219 50.933594 L 21.000000 50.933594 L 21.000000 50.020508 Z " fill="rgb(255, 255, 255)" fill-opacity="1.000000" />
<path d="M 34.574219 50.020508 L 34.574219 50.933594 L 28.000000 50.933594 L 28.000000 50.020508 Z " fill="rgb(255, 255, 255)" fill-opacity="1.000000" />
<path d="M 41.574219 50.020508 L 41.574219 50.933594 L 35.000000 50.933594 L 35.000000 50.020508 Z " fill="rgb(255, 255, 255)" fill-opacity="1.000000" />
<path d="M 43.573730 40.980957 L 47.795410 50.020508 L 46.774902 50.020508 L 42.547852 40.980957 Z " fill="rgb(255, 255, 255)" fill-opacity="1.000000" />
<path d="M 25.774902 27.980957 L 26.795410 27.980957 L 22.573730 37.020508 L 21.547852 37.020508 Z " fill="rgb(255, 255, 255)" fill-opacity="1.000000" />
<path d="M 36.573730 27.980957 L 40.795410 37.020508 L 39.774902 37.020508 L 35.547852 27.980957 Z " fill="rgb(255, 255, 255)" fill-opacity="1.000000" />
<path d="M 30.089355 7.830078 L 31.979980 7.830078 L 31.979980 10.000000 L 30.089355 10.000000 Z " fill="rgb(255, 255, 255)" fill-opacity="1.000000" />
<path d="M 31.985352 14.594238 L 31.985352 25.594238 L 31.061523 25.594238 L 31.061523 14.594238 Z " fill="rgb(255, 255, 255)" fill-opacity="1.000000" />
</svg>