<svg xmlns="http://www.w3.org/2000/svg" version="1.1" width="92" height="40">
<path d="M 0.547852 19.111328 L 6.241211 19.111328 L 6.241211 20.019043 L 0.547852 20.019043 Z " fill="rgb(255, 255, 255)" fill-opacity="1.000000" />
<path d="M 7.547852 19.111328 L 13.241211 19.111328 L 13.241211 20.019043 L 7.547852 20.019043 Z " fill="rgb(255, 255, 255)" fill-opacity="1.000000" />
<path d="M 14.547852 19.111328 L 20.241211 19.111328 L 20.241211 20.019043 L 14.547852 20.019043 Z " fill="rgb(255, 255, 255)" fill-opacity="1.000000" />
<path d="M 21.547852 19.111328 L 27.241211 19.111328 L 27.241211 20.019043 L 21.547852 20.019043 Z " fill="rgb(255, 255, 255)" fill-opacity="1.000000" />
<path d="M 28.547852 19.111328 L 34.241211 19.111328 L 34.241211 20.019043 L 28.547852 20.019043 Z " fill="rgb(255, 255, 255)" fill-opacity="1.000000" />
<path d="M 35.547852 19.111328 L 41.241211 19.111328 L 41.241211 20.019043 L 35.547852 20.019043 Z " fill="rgb(255, 255, 255)" fill-opacity="1.000000" />
<path d="M 45.985352 27.594238 L 45.985352 38.594238 L 45.061523 38.594238 L 45.061523 27.594238 Z " fill="rgb(255, 255, 255)" fill-opacity="1.000000" />
<path d="M 48.332520 18.321777 L 45.947754 19.610840 L 48.332520 20.905273 L 47.956543 21.560547 L 45.711426 20.212402 L 45.711426 22.715332 L 44.943359 22.715332 L 44.943359 20.212402 L 42.698242 21.560547 L 42.322266 20.905273 L 44.712402 19.610840 L 42.322266 18.321777 L 42.698242 17.661133 L 44.943359 19.009277 L 44.943359 16.506348 L 45.711426 16.506348 L 45.711426 19.009277 L 47.956543 17.661133 Z " fill="rgb(255, 255, 255)" fill-opacity="1.000000" />
<path d="M 49.547852 19.111328 L 55.241211 19.111328 L 55.241211 20.019043 L 49.547852 20.019043 Z " fill="rgb(255, 255, 255)" fill-opacity="1.000000" />
<path d="M 56.547852 19.111328 L 62.241211 19.111328 L 62.241211 20.019043 L 56.547852 20.019043 Z " fill="rgb(255, 255, 255)" fill-opacity="1.000000" />
<path d="M 63.547852 19.111328 L 69.241211 19.111328 L 69.241211 20.019043 L 63.547852 20.019043 Z " fill="rgb(255, 255, 255)" fill-opacity="1.000000" />
<path d="M 70.547852 19.111328 L 76.241211 19.111328 L 76.241211 20.019043 L 70.547852 20.019043 Z " fill="rgb(255, 255, 255)" fill-opacity="1.000000" />
<path d="M 77.547852 19.111328 L 83.241211 19.111328 L 83.241211 20.019043 L 77.547852 20.019043 Z " fill="rgb(255, 255, 255)" fill-opacity="1.000000" />
<path d="M 84.547852 19.111328 L 90.241211 19.111328 L 90.241211 20.019043 L 84.547852 20.019043 Z " fill="rgb(255, 255, 255)" fill-opacity="1.000000" />
<path d="M 45.985352 1.594238 L 45.985352 12.594238 L 45.061523 12.594238 L 45.061523 1.594238 Z " fill="rgb(255, 255, 255)" fill-opacity="1.000000" />
</svg>