<svg xmlns="http://www.w3.org/2000/svg" version="1.1" width="442" height="79">
<path d="M 6.332520 57.321777 L 3.947754 58.610840 L 6.332520 59.905273 L 5.956543 60.560547 L 3.711426 59.212402 L 3.711426 61.715332 L 2.943359 61.715332 L 2.943359 59.212402 L 0.698242 60.560547 L 0.322266 59.905273 L 2.712402 58.610840 L 0.322266 57.321777 L 0.698242 56.661133 L 2.943359 58.009277 L 2.943359 55.506348 L 3.711426 55.506348 L 3.711426 58.009277 L 5.956543 56.661133 Z " fill="rgb(255, 255, 255)" fill-opacity="1.000000" />
<path d="M 317.089355 72.830078 L 318.979980 72.830078 L 318.979980 75.000000 L 317.089355 75.000000 Z " fill="rgb(255, 255, 255)" fill-opacity="1.000000" />
<path d="M 437.867188 68.672852 L 437.867188 71.052246 L 440.257324 71.052246 L 440.257324 71.959961 L 437.867188 71.959961 L 437.867188 74.339355 L 436.964844 74.339355 L 436.964844 71.959961 L 434.580078 71.959961 L 434.580078 71.052246 L 436.964844 71.052246 L 436.964844 68.672852 Z " fill="rgb(255, 255, 255)" fill-opacity="1.000000" />
<path d="M 79.089355 59.830078 L 80.979980 59.830078 L 80.979980 62.000000 L 79.089355 62.000000 Z " fill="rgb(255, 255, 255)" fill-opacity="1.000000" />
<path d="M 171.867188 55.672852 L 171.867188 58.052246 L 174.257324 58.052246 L 174.257324 58.959961 L 171.867188 58.959961 L 171.867188 61.339355 L 170.964844 61.339355 L 170.964844 58.959961 L 168.580078 58.959961 L 168.580078 58.052246 L 170.964844 58.052246 L 170.964844 55.672852 Z " fill="rgb(255, 255, 255)" fill-opacity="1.000000" />
<path d="M 65.089355 7.830078 L 66.979980 7.830078 L 66.979980 10.000000 L 65.089355 10.000000 Z " fill="rgb(255, 255, 255)" fill-opacity="1.000000" />
<path d="M 146.332520 18.321777 L 143.947754 19.610840 L 146.332520 20.905273 L 145.956543 21.560547 L 143.711426 20.212402 L 143.711426 22.715332 L 142.943359 22.715332 L 142.943359 20.212402 L 140.698242 21.560547 L 140.322266 20.905273 L 142.712402 19.610840 L 140.322266 18.321777 L 140.698242 17.661133 L 142.943359 19.009277 L 142.943359 16.506348 L 143.711426 16.506348 L 143.711426 19.009277 L 145.956543 17.661133 Z " fill="rgb(255, 255, 255)" fill-opacity="1.000000" />
<path d="M 265.332520 44.321777 L 262.947754 45.610840 L 265.332520 46.905273 L 264.956543 47.560547 L 262.711426 46.212402 L 262.711426 48.715332 L 261.943359 48.715332 L 261.943359 46.212402 L 259.698242 47.560547 L 259.322266 46.905273 L 261.712402 45.610840 L 259.322266 44.321777 L 259.698242 43.661133 L 261.943359 45.009277 L 261.943359 42.506348 L 262.711426 42.506348 L 262.711426 45.009277 L 264.956543 43.661133 Z " fill="rgb(255, 255, 255)" fill-opacity="1.000000" />
<path d="M 346.867188 29.672852 L 346.867188 32.052246 L 349.257324 32.052246 L 349.257324 32.959961 L 346.867188 32.959961 L 346.867188 35.339355 L 345.964844 35.339355 L 345.964844 32.959961 L 343.580078 32.959961 L 343.580078 32.052246 L 345.964844 32.052246 L 345.964844 29.672852 Z " fill="rgb(255, 255, 255)" fill-opacity="1.000000" />
<path d="M 380.089355 7.830078 L 381.979980 7.830078 L 381.979980 10.000000 L 380.089355 10.000000 Z " fill="rgb(255, 255, 255)" fill-opacity="1.000000" />
</svg>